<svg>
    <symbol id="icon-phone" xmlns="http://www.w3.org/2000/svg" width="24" height="25" viewBox="0 0 24 25" fill="none">
        <circle cx="9.5" cy="10.4036" r="9.5" fill="#EFC6B4"/>
        <path d="M7.03328 11.0245C7.03328 9.15023 7.55394 8.68866 9.18173 8.23704" stroke="#E280A8" stroke-width="1.40773" stroke-linecap="round"/>
        <path d="M4.35632 9.82618C4.35632 6.98317 5.1461 6.28304 7.61525 5.59799" stroke="#E280A8" stroke-width="1.40773" stroke-linecap="round"/>
        <path d="M21.8513 10.0981L16.3996 21.0015C15.5576 22.6854 13.9298 23.8372 12.0616 24.0707L9.3741 24.4066C8.35823 24.5336 7.42799 23.8231 7.28319 22.8096L6.87357 19.9426C6.72593 18.9092 7.4498 17.9539 8.48459 17.8165L12.6736 17.2602C13.2975 17.1773 13.8384 16.7873 14.114 16.2214L16.549 11.2216C16.8223 10.6605 16.7988 10.0003 16.4863 9.46006L14.5545 6.11989C14.0587 5.26267 14.3142 4.16775 15.1381 3.61845L17.4025 2.1089C18.2006 1.57682 19.2715 1.73213 19.8856 2.46902L21.1406 3.97511C22.5728 5.69373 22.8518 8.09716 21.8513 10.0981Z" stroke="#822976" stroke-width="0.703865" stroke-linecap="round"/>
        <circle cx="10.1266" cy="10.558" r="0.703865" fill="#E280A8"/>
    </symbol>
    <symbol id="icon-hit" xmlns="http://www.w3.org/2000/svg" width="55" height="62" viewBox="0 0 55 62" fill="none">
        <circle cx="40" cy="22" r="40" fill="#E280A8"/>
    </symbol>
    <symbol id="icon-search" xmlns="http://www.w3.org/2000/svg" width="21" height="24" viewBox="0 0 21 24" fill="none">
        <circle cx="8.5" cy="8.5" r="8.5" fill="#EFC6B4"/>
        <circle cx="8.25983" cy="6.25983" r="4.25983" fill="#E280A8"/>
        <path fill-rule="evenodd" clip-rule="evenodd" d="M20.3 10.7243C20.3 15.0321 16.8078 18.5243 12.5 18.5243C8.19218 18.5243 4.7 15.0321 4.7 10.7243C4.7 6.41648 8.19218 2.9243 12.5 2.9243C16.8078 2.9243 20.3 6.41648 20.3 10.7243ZM16.7941 18.0615C15.5339 18.8006 14.0664 19.2243 12.5 19.2243C7.80558 19.2243 4 15.4187 4 10.7243C4 6.02988 7.80558 2.2243 12.5 2.2243C17.1944 2.2243 21 6.02988 21 10.7243C21 13.6014 19.5705 16.1447 17.3831 17.6826L20.3 22.5442C20.3995 22.7099 20.3457 22.9249 20.18 23.0244C20.0142 23.1238 19.7992 23.0701 19.6998 22.9043L16.7941 18.0615Z" fill="#822976"/>
    </symbol>
    <symbol id="icon-topMaster" xmlns="http://www.w3.org/2000/svg" width="44" height="44" viewBox="0 0 44 44" fill="none">
        <g clip-path="url(#clip0_1_295)">
            <path d="M22 0C9.845 0 0 9.845 0 22C0 34.155 9.845 44 22 44C34.155 44 44 34.155 44 22C44 9.845 34.155 0 22 0Z" fill="#A076AB"/>
            <path d="M26.62 0.494987L25.1717 4.34499C24.4933 5.13332 21.1383 9.34999 21.1383 9.34999L16.83 20.075L22.7883 22.7333L27.7383 23.8883L30.4333 24.2367C30.4333 24.2367 32.8533 19.36 33.8433 16.225C34.815 13.145 34.9433 11.3667 35.2733 8.39665L36.6117 5.55499C33.825 3.07999 30.3967 1.28332 26.62 0.476654V0.494987Z" fill="#DBB595"/>
            <path d="M19.47 18.04C18.645 17.6733 17.6367 18.1317 17.2333 19.0667L12.1917 30.7633C11.825 31.6067 12.1367 32.56 12.8883 32.89C13.64 33.22 14.5567 32.8167 14.9233 31.955L20.3683 20.4967C20.7717 19.5617 20.3133 18.4067 19.4883 18.0583L19.47 18.04ZM23.0083 19.525C22.1467 19.1583 21.0467 19.5067 20.6433 20.4417L14.9783 34.5033C14.63 35.3467 14.9783 36.3183 15.7667 36.6483C16.555 36.9783 17.49 36.5567 17.8383 35.7133L24.0167 21.945C24.4017 21.01 23.87 19.91 23.0083 19.5433V19.525ZM26.51 21.065C25.6667 20.7167 24.585 21.1383 24.1817 22.0917L19.5617 33.7333C19.1767 34.6683 19.5617 35.7133 20.3867 36.0617C21.23 36.41 22.22 35.915 22.605 34.98L27.5367 23.485C27.9217 22.55 27.335 21.4317 26.4917 21.0833L26.51 21.065ZM30.1033 22.165C29.2967 21.8533 28.1967 22.2933 27.8117 23.2283L25.52 30.03C25.2083 30.855 25.52 31.735 26.18 32.01C26.8767 32.285 27.6833 31.8267 28.0133 31.02L30.36 24.3833C30.7267 23.43 30.8917 22.4767 30.1033 22.165ZM21.9633 8.79999C21.9633 8.79999 18.755 10.7983 17.105 11.7517C16.28 12.2467 15.2167 14.0983 13.9517 15.7483C12.7233 17.3433 11.1833 18.4617 11.3483 19.085C11.7883 20.8267 14.245 19.6533 14.5383 19.5067C16.9217 18.1683 19.1583 15.29 19.1583 15.29L23.1733 14.19L21.9817 8.81832L21.9633 8.79999Z" fill="#DBB595"/>
            <path d="M11.2383 19.36C12.925 18.9933 13.145 16.6833 13.145 16.6833C10.5417 18.865 11.2383 19.36 11.2383 19.36Z" fill="#EFE4DC"/>
            <path d="M26.9683 29.8833C26.455 29.7 25.9783 29.7367 25.7583 30.3783C25.7583 30.3967 25.7033 30.5983 25.7033 30.635C25.52 31.2767 25.8133 31.7167 26.29 31.9C26.7667 32.065 27.2433 31.9367 27.5183 31.35C27.5183 31.3133 27.5917 31.0933 27.61 31.0567C27.83 30.415 27.4817 30.085 26.9683 29.9017V29.8833Z" fill="#E8C7AF"/>
            <path d="M26.95 29.9383C26.455 29.755 25.9967 29.7917 25.7767 30.3967C25.7767 30.415 25.6483 30.855 25.63 30.8917C25.4467 31.4967 25.4467 32.2117 26.0517 32.4317C26.6567 32.6517 27.0967 32.1567 27.3533 31.5883C27.3533 31.5517 27.5 31.0933 27.5183 31.0383C27.7567 30.4333 27.4267 30.1217 26.9317 29.9383H26.95Z" fill="#F7F3F0"/>
            <path d="M26.9683 29.9567C26.4733 29.7733 26.015 29.81 25.795 30.415C25.795 30.4333 25.7217 30.6167 25.7217 30.6533C25.5383 31.2583 25.8133 31.6983 26.2717 31.8633C26.73 32.0283 27.1883 31.9 27.4633 31.3317C27.4633 31.295 27.555 31.0933 27.5733 31.0567C27.7933 30.4517 27.4633 30.1217 26.9867 29.9567H26.9683Z" fill="#EFE4DC"/>
            <path d="M21.45 33.4583C20.845 33.22 20.2583 33.2567 19.965 34.0267C19.965 34.0633 19.8917 34.3017 19.8733 34.32C19.6167 35.09 19.965 35.64 20.5517 35.8783C21.12 36.0983 21.7067 35.9517 22.055 35.2367C22.0733 35.1817 22.1467 34.925 22.1833 34.87C22.4767 34.1 22.0733 33.6783 21.45 33.4583Z" fill="#E8C7AF"/>
            <path d="M21.4133 33.55C20.8267 33.3117 20.2767 33.33 19.9833 34.0817C19.9833 34.1183 19.8 34.6317 19.7817 34.6683C19.525 35.4017 19.5067 36.2817 20.2583 36.575C20.9917 36.8683 21.5417 36.2633 21.89 35.585C21.9083 35.53 22.0917 34.9983 22.1283 34.9433C22.4033 34.21 22.0183 33.8067 21.4317 33.5683L21.4133 33.55Z" fill="#F7F3F0"/>
            <path d="M21.45 33.5683C20.8633 33.33 20.3133 33.3484 20.02 34.1C20.02 34.1367 19.9283 34.3383 19.91 34.375C19.6533 35.1083 19.9833 35.6583 20.5333 35.8783C21.0833 36.0983 21.6517 35.97 22 35.2917C22.0183 35.2367 22.1283 35.0167 22.1467 34.9617C22.4217 34.2283 22.0367 33.825 21.45 33.5867V33.5683Z" fill="#EFE4DC"/>
            <path d="M16.885 34.045C16.2983 33.77 15.7117 33.77 15.3633 34.5033C15.3633 34.54 15.2717 34.7783 15.2533 34.7967C14.96 35.5483 15.2533 36.135 15.8217 36.3917C16.3717 36.6483 16.9767 36.5383 17.38 35.8417C17.4167 35.7867 17.5083 35.5483 17.5267 35.4933C17.875 34.76 17.49 34.32 16.9033 34.045H16.885Z" fill="#E8C7AF"/>
            <path d="M16.8483 34.1367C16.28 33.8617 15.73 33.8433 15.3817 34.5583C15.3817 34.595 15.1617 35.1083 15.1433 35.1267C14.85 35.8417 14.7767 36.7217 15.4733 37.0517C16.1883 37.3817 16.775 36.8317 17.16 36.1717C17.1783 36.1167 17.4167 35.585 17.435 35.5483C17.7833 34.8333 17.435 34.4117 16.8483 34.1367Z" fill="#F7F3F0"/>
            <path d="M16.8667 34.155C16.2983 33.88 15.7483 33.8617 15.4 34.5767C15.4 34.6133 15.29 34.815 15.2717 34.8517C14.9783 35.5667 15.2717 36.135 15.8033 36.3917C16.335 36.6483 16.9033 36.5567 17.3067 35.8967C17.325 35.8417 17.4533 35.6217 17.4717 35.585C17.8017 34.87 17.4717 34.4483 16.885 34.1733L16.8667 34.155Z" fill="#EFE4DC"/>
            <path d="M13.9883 30.3967C13.4017 30.1217 12.815 30.1217 12.4667 30.855C12.4667 30.8917 12.375 31.13 12.3567 31.1483C12.0633 31.9 12.3567 32.4867 12.925 32.7433C13.475 33 14.08 32.89 14.4833 32.1933C14.52 32.1383 14.6117 31.9 14.63 31.845C14.9783 31.0933 14.5933 30.6717 14.0067 30.3967H13.9883Z" fill="#E8C7AF"/>
            <path d="M13.9517 30.47C13.3833 30.195 12.8333 30.1767 12.485 30.8917C12.485 30.9283 12.265 31.4417 12.2467 31.46C11.9533 32.175 11.88 33.055 12.5767 33.385C13.2917 33.715 13.8783 33.165 14.2633 32.505C14.2817 32.45 14.52 31.9183 14.5383 31.8817C14.8867 31.1667 14.5383 30.7267 13.9517 30.47Z" fill="#F7F3F0"/>
            <path d="M13.9883 30.4883C13.42 30.2133 12.87 30.195 12.5217 30.91C12.5217 30.9467 12.4117 31.1483 12.3933 31.185C12.1 31.9 12.3933 32.4683 12.925 32.725C13.4567 32.9817 14.025 32.89 14.4283 32.23C14.4467 32.175 14.575 31.955 14.5933 31.9183C14.9233 31.2033 14.575 30.7817 14.0067 30.5067L13.9883 30.4883Z" fill="#EFE4DC"/>
            <path d="M20.1117 13.1633C20.1117 13.1633 19.2867 14.3733 18.8467 15.1433C18.425 15.895 17.5083 18.315 17.5083 18.315C17.5083 18.315 18.4983 16.17 19.0667 15.2717C19.6167 14.3733 20.295 13.3833 20.295 13.3833L20.1117 13.1633Z" fill="#CEA98D"/>
            <path d="M22.88 13.2733C21.9817 11.0367 20.3867 10.6333 18.865 11.2383C17.3433 11.8433 16.4817 13.255 17.38 15.4917C18.04 17.1233 20.6067 19.9467 22.1283 19.3417C23.65 18.7183 23.485 14.8133 22.88 13.2733Z" fill="white"/>
            <path d="M22.3667 16.4633C21.9633 15.455 21.3217 15.4917 20.6433 15.7667C19.965 16.0417 19.4883 16.4633 19.8917 17.4717C20.295 18.48 21.7067 19.58 22.11 19.415C22.5317 19.2317 22.77 17.4717 22.3667 16.4633Z" fill="#D92AF2"/>
            <path d="M30.3783 15.345C29.5717 13.9333 28.0683 13.255 25.9783 14.4283C24.4383 15.29 21.9817 18.2233 22.7883 19.635C23.595 21.0467 27.4633 20.405 28.8933 19.58C30.9833 18.4067 31.185 16.775 30.3783 15.345Z" fill="white"/>
            <path d="M26.125 17.6917C25.7583 17.05 25.2817 16.6283 24.3467 17.16C23.3933 17.6917 22.495 19.2317 22.715 19.6167C22.9533 20.02 24.7133 20.02 25.6667 19.4883C26.62 18.9383 26.4917 18.315 26.1433 17.6733L26.125 17.6917Z" fill="#D92AF2"/>
            <path d="M29.2783 21.67C27.8667 20.6067 24.2 19.525 23.2283 20.845C22.2567 22.165 24.42 25.4283 25.74 26.4183C27.665 27.8667 29.2417 27.39 30.2133 26.07C31.185 24.75 31.2033 23.1 29.2783 21.67Z" fill="white"/>
            <path d="M26.1067 21.2667C25.245 20.625 23.4667 20.405 23.1917 20.7533C22.9167 21.12 23.6317 22.7517 24.5117 23.4117C25.3733 24.0533 25.905 23.705 26.345 23.1183C26.785 22.5133 26.9683 21.9083 26.1067 21.2667Z" fill="#D92AF2"/>
            <path d="M21.9817 21.285C20.35 21.0467 18.535 24.53 18.2967 26.1617C17.9667 28.545 19.1217 29.7 20.7533 29.92C22.385 30.1583 23.815 29.37 24.1633 26.9867C24.42 25.245 23.6133 21.5233 21.9817 21.285Z" fill="white"/>
            <path d="M22.0367 21.23C21.5783 21.175 20.4967 22.5867 20.35 23.65C20.2033 24.7317 20.7533 25.0067 21.4867 25.1167C22.22 25.2267 22.8433 25.1167 22.99 24.0167C23.1367 22.935 22.4767 21.285 22.0367 21.23Z" fill="#D92AF2"/>
            <path d="M21.5967 20.0383C21.2483 18.4433 17.3617 17.93 15.7483 18.2967C13.4017 18.81 12.7233 20.3133 13.0717 21.9083C13.42 23.5033 14.6483 24.6033 17.0133 24.09C18.7367 23.705 21.945 21.6517 21.5967 20.0567V20.0383Z" fill="white"/>
            <path d="M21.67 20.075C21.5783 19.6167 19.8733 19.1033 18.81 19.3417C17.7467 19.58 17.6733 20.2033 17.82 20.9183C17.985 21.6333 18.315 22.1833 19.3783 21.945C20.4417 21.7067 21.78 20.515 21.67 20.075Z" fill="#D92AF2"/>
            <path d="M23.98 19.7267C23.65 18.9017 22.6783 18.5167 21.7983 18.865C20.9367 19.2133 20.4967 20.1667 20.8267 20.9917C21.1567 21.8167 22.1283 22.2017 23.0083 21.8533C23.87 21.505 24.31 20.5517 23.98 19.7267Z" fill="#D92AF2"/>
            <path d="M23.4483 19.9467C23.2467 19.4333 22.6233 19.2133 22.0367 19.4517C21.4683 19.69 21.175 20.2767 21.3767 20.79C21.5783 21.3033 22.2017 21.5233 22.7883 21.285C23.3567 21.0467 23.6683 20.46 23.4483 19.9467Z" fill="#BA17CC"/>
        </g>
        <defs>
            <clipPath id="clip0_1_295">
            <rect width="44" height="44" fill="white"/>
            </clipPath>
        </defs>
    </symbol>  
    <symbol id="icon-premiumMaster" xmlns="http://www.w3.org/2000/svg" width="44" height="44" viewBox="0 0 44 44" fill="none">
        <g clip-path="url(#clip0_1_261)">
            <path d="M22 0C9.845 0 0 9.845 0 22C0 34.155 9.845 44 22 44C34.155 44 44 34.155 44 22C44 9.845 34.155 0 22 0Z" fill="#A076AB"/>
            <path d="M26.62 0.494987L25.1717 4.34499C24.4933 5.13332 21.1383 9.34999 21.1383 9.34999L16.83 20.075L22.7883 22.7333L27.7383 23.8883L30.4333 24.2367C30.4333 24.2367 32.8533 19.36 33.8433 16.225C34.815 13.145 34.9433 11.3667 35.2733 8.39665L36.6117 5.55499C33.825 3.07999 30.3967 1.28332 26.62 0.476654V0.494987Z" fill="#DBB595"/>
            <path d="M19.47 18.04C18.645 17.6733 17.6367 18.1317 17.2333 19.0667L12.1917 30.7633C11.825 31.6067 12.1367 32.56 12.8883 32.89C13.64 33.22 14.5567 32.8167 14.9233 31.955L20.3683 20.4967C20.7717 19.5617 20.3133 18.4067 19.4883 18.0583L19.47 18.04ZM23.0083 19.525C22.1467 19.1583 21.0467 19.5067 20.6433 20.4417L14.9783 34.5033C14.63 35.3467 14.9783 36.3183 15.7667 36.6483C16.555 36.9783 17.49 36.5567 17.8383 35.7133L24.0167 21.945C24.4017 21.01 23.87 19.91 23.0083 19.5433V19.525ZM26.51 21.065C25.6667 20.7167 24.585 21.1383 24.1817 22.0917L19.5617 33.7333C19.1767 34.6683 19.5617 35.7133 20.3867 36.0617C21.23 36.41 22.22 35.915 22.605 34.98L27.5367 23.485C27.9217 22.55 27.335 21.4317 26.4917 21.0833L26.51 21.065ZM30.1033 22.165C29.2967 21.8533 28.1967 22.2933 27.8117 23.2283L25.52 30.03C25.2083 30.855 25.52 31.735 26.18 32.01C26.8767 32.285 27.6833 31.8267 28.0133 31.02L30.36 24.3833C30.7267 23.43 30.8917 22.4767 30.1033 22.165ZM21.9633 8.79999C21.9633 8.79999 18.755 10.7983 17.105 11.7517C16.28 12.2467 15.2167 14.0983 13.9517 15.7483C12.7233 17.3433 11.1833 18.4617 11.3483 19.085C11.7883 20.8267 14.245 19.6533 14.5383 19.5067C16.9217 18.1683 19.1583 15.29 19.1583 15.29L23.1733 14.19L21.9817 8.81832L21.9633 8.79999Z" fill="#DBB595"/>
            <path d="M11.2383 19.36C12.925 18.9933 13.145 16.6833 13.145 16.6833C10.5417 18.865 11.2383 19.36 11.2383 19.36Z" fill="#EFE4DC"/>
            <path d="M26.9683 29.8833C26.455 29.7 25.9783 29.7367 25.7583 30.3783C25.7583 30.3967 25.7033 30.5983 25.7033 30.635C25.52 31.2767 25.8133 31.7167 26.29 31.9C26.7667 32.065 27.2433 31.9367 27.5183 31.35C27.5183 31.3133 27.5917 31.0933 27.61 31.0567C27.83 30.415 27.4817 30.085 26.9683 29.9017V29.8833Z" fill="#E8C7AF"/>
            <path d="M26.95 29.9383C26.455 29.755 25.9967 29.7917 25.7767 30.3967C25.7767 30.415 25.6483 30.855 25.63 30.8917C25.4467 31.4967 25.4467 32.2117 26.0517 32.4317C26.6567 32.6517 27.0967 32.1567 27.3533 31.5883C27.3533 31.5517 27.5 31.0933 27.5183 31.0383C27.7567 30.4333 27.4267 30.1217 26.9317 29.9383H26.95Z" fill="#F7F3F0"/>
            <path d="M26.9683 29.9567C26.4733 29.7733 26.015 29.81 25.795 30.415C25.795 30.4333 25.7217 30.6167 25.7217 30.6533C25.5383 31.2583 25.8133 31.6983 26.2717 31.8633C26.73 32.0283 27.1883 31.9 27.4633 31.3317C27.4633 31.295 27.555 31.0933 27.5733 31.0567C27.7933 30.4517 27.4633 30.1217 26.9867 29.9567H26.9683Z" fill="#EFE4DC"/>
            <path d="M21.45 33.4583C20.845 33.22 20.2583 33.2567 19.965 34.0267C19.965 34.0633 19.8917 34.3017 19.8733 34.32C19.6167 35.09 19.965 35.64 20.5517 35.8783C21.12 36.0983 21.7067 35.9517 22.055 35.2367C22.0733 35.1817 22.1467 34.925 22.1833 34.87C22.4767 34.1 22.0733 33.6783 21.45 33.4583Z" fill="#E8C7AF"/>
            <path d="M21.4133 33.55C20.8267 33.3117 20.2767 33.33 19.9833 34.0817C19.9833 34.1183 19.8 34.6317 19.7817 34.6683C19.525 35.4017 19.5067 36.2817 20.2583 36.575C20.9917 36.8683 21.5417 36.2633 21.89 35.585C21.9083 35.53 22.0917 34.9983 22.1283 34.9433C22.4033 34.21 22.0183 33.8067 21.4317 33.5683L21.4133 33.55Z" fill="#F7F3F0"/>
            <path d="M21.45 33.5683C20.8633 33.33 20.3133 33.3484 20.02 34.1C20.02 34.1367 19.9283 34.3383 19.91 34.375C19.6533 35.1083 19.9833 35.6583 20.5333 35.8783C21.0833 36.0983 21.6517 35.97 22 35.2917C22.0183 35.2367 22.1283 35.0167 22.1467 34.9617C22.4217 34.2283 22.0367 33.825 21.45 33.5867V33.5683Z" fill="#EFE4DC"/>
            <path d="M16.885 34.045C16.2983 33.77 15.7117 33.77 15.3633 34.5033C15.3633 34.54 15.2717 34.7783 15.2533 34.7967C14.96 35.5483 15.2533 36.135 15.8217 36.3917C16.3717 36.6483 16.9767 36.5383 17.38 35.8417C17.4167 35.7867 17.5083 35.5483 17.5267 35.4933C17.875 34.76 17.49 34.32 16.9033 34.045H16.885Z" fill="#E8C7AF"/>
            <path d="M16.8483 34.1367C16.28 33.8617 15.73 33.8433 15.3817 34.5583C15.3817 34.595 15.1617 35.1083 15.1433 35.1267C14.85 35.8417 14.7767 36.7217 15.4733 37.0517C16.1883 37.3817 16.775 36.8317 17.16 36.1717C17.1783 36.1167 17.4167 35.585 17.435 35.5483C17.7833 34.8333 17.435 34.4117 16.8483 34.1367Z" fill="#F7F3F0"/>
            <path d="M16.8667 34.155C16.2983 33.88 15.7483 33.8617 15.4 34.5767C15.4 34.6133 15.29 34.815 15.2717 34.8517C14.9783 35.5667 15.2717 36.135 15.8033 36.3917C16.335 36.6483 16.9033 36.5567 17.3067 35.8967C17.325 35.8417 17.4533 35.6217 17.4717 35.585C17.8017 34.87 17.4717 34.4483 16.885 34.1733L16.8667 34.155Z" fill="#EFE4DC"/>
            <path d="M13.9883 30.3967C13.4017 30.1217 12.815 30.1217 12.4667 30.855C12.4667 30.8917 12.375 31.13 12.3567 31.1483C12.0633 31.9 12.3567 32.4867 12.925 32.7433C13.475 33 14.08 32.89 14.4833 32.1933C14.52 32.1383 14.6117 31.9 14.63 31.845C14.9783 31.0933 14.5933 30.6717 14.0067 30.3967H13.9883Z" fill="#E8C7AF"/>
            <path d="M13.9517 30.47C13.3833 30.195 12.8333 30.1767 12.485 30.8917C12.485 30.9283 12.265 31.4417 12.2467 31.46C11.9533 32.175 11.88 33.055 12.5767 33.385C13.2917 33.715 13.8783 33.165 14.2633 32.505C14.2817 32.45 14.52 31.9183 14.5383 31.8817C14.8867 31.1667 14.5383 30.7267 13.9517 30.47Z" fill="#F7F3F0"/>
            <path d="M13.9883 30.4883C13.42 30.2133 12.87 30.195 12.5217 30.91C12.5217 30.9467 12.4117 31.1483 12.3933 31.185C12.1 31.9 12.3933 32.4683 12.925 32.725C13.4567 32.9817 14.025 32.89 14.4283 32.23C14.4467 32.175 14.575 31.955 14.5933 31.9183C14.9233 31.2033 14.575 30.7817 14.0067 30.5067L13.9883 30.4883Z" fill="#EFE4DC"/>
            <path d="M20.1117 13.1633C20.1117 13.1633 19.2867 14.3733 18.8467 15.1433C18.425 15.895 17.5083 18.315 17.5083 18.315C17.5083 18.315 18.4983 16.17 19.0667 15.2717C19.6167 14.3733 20.295 13.3833 20.295 13.3833L20.1117 13.1633Z" fill="#CEA98D"/>
            <path d="M22.88 13.2733C21.9817 11.0367 20.3867 10.6333 18.865 11.2383C17.3433 11.8433 16.4817 13.255 17.38 15.4917C18.04 17.1233 20.6067 19.9467 22.1283 19.3417C23.65 18.7183 23.485 14.8133 22.88 13.2733Z" fill="white"/>
            <path d="M22.3667 16.4633C21.9633 15.455 21.3217 15.4917 20.6433 15.7667C19.965 16.0417 19.4883 16.4633 19.8917 17.4717C20.295 18.48 21.7067 19.58 22.11 19.415C22.5317 19.2317 22.77 17.4717 22.3667 16.4633Z" fill="#F4E028"/>
            <path d="M30.3783 15.345C29.5717 13.9333 28.0683 13.255 25.9783 14.4283C24.4383 15.29 21.9817 18.2233 22.7883 19.635C23.595 21.0467 27.4633 20.405 28.8933 19.58C30.9833 18.4067 31.185 16.775 30.3783 15.345Z" fill="white"/>
            <path d="M26.125 17.6917C25.7583 17.05 25.2817 16.6283 24.3467 17.16C23.3933 17.6917 22.495 19.2317 22.715 19.6167C22.9533 20.02 24.7133 20.02 25.6667 19.4883C26.62 18.9383 26.4917 18.315 26.1433 17.6733L26.125 17.6917Z" fill="#F4E028"/>
            <path d="M29.2783 21.67C27.8667 20.6067 24.2 19.525 23.2283 20.845C22.2567 22.165 24.42 25.4283 25.74 26.4183C27.665 27.8667 29.2417 27.39 30.2133 26.07C31.185 24.75 31.2033 23.1 29.2783 21.67Z" fill="white"/>
            <path d="M26.1067 21.2667C25.245 20.625 23.4667 20.405 23.1917 20.7533C22.9167 21.12 23.6317 22.7517 24.5117 23.4117C25.3733 24.0533 25.905 23.705 26.345 23.1183C26.785 22.5133 26.9683 21.9083 26.1067 21.2667Z" fill="#F4E028"/>
            <path d="M21.9817 21.285C20.35 21.0467 18.535 24.53 18.2967 26.1617C17.9667 28.545 19.1217 29.7 20.7533 29.92C22.385 30.1583 23.815 29.37 24.1633 26.9867C24.42 25.245 23.6133 21.5233 21.9817 21.285Z" fill="white"/>
            <path d="M22.0367 21.23C21.5783 21.175 20.4967 22.5867 20.35 23.65C20.2033 24.7317 20.7533 25.0067 21.4867 25.1167C22.22 25.2267 22.8433 25.1167 22.99 24.0167C23.1367 22.935 22.4767 21.285 22.0367 21.23Z" fill="#F4E028"/>
            <path d="M21.5967 20.0383C21.2483 18.4433 17.3617 17.93 15.7483 18.2967C13.4017 18.81 12.7233 20.3133 13.0717 21.9083C13.42 23.5033 14.6483 24.6033 17.0133 24.09C18.7367 23.705 21.945 21.6517 21.5967 20.0567V20.0383Z" fill="white"/>
            <path d="M21.67 20.075C21.5783 19.6167 19.8733 19.1033 18.81 19.3417C17.7467 19.58 17.6733 20.2033 17.82 20.9183C17.985 21.6333 18.315 22.1833 19.3783 21.945C20.4417 21.7067 21.78 20.515 21.67 20.075Z" fill="#F4E028"/>
            <path d="M23.98 19.7267C23.65 18.9017 22.6783 18.5167 21.7983 18.865C20.9367 19.2133 20.4967 20.1667 20.8267 20.9917C21.1567 21.8167 22.1283 22.2017 23.0083 21.8533C23.87 21.505 24.31 20.5517 23.98 19.7267Z" fill="#F4E028"/>
            <path d="M23.4483 19.9467C23.2467 19.4333 22.6233 19.2133 22.0367 19.4517C21.4683 19.69 21.175 20.2767 21.3767 20.79C21.5783 21.3033 22.2017 21.5233 22.7883 21.285C23.3567 21.0467 23.6683 20.46 23.4483 19.9467Z" fill="#E2CB23"/>
        </g>
        <defs>
            <clipPath id="clip0_1_261">
            <rect width="44" height="44" fill="white"/>
            </clipPath>
        </defs>
    </symbol>    
    <symbol id="icon-master" xmlns="http://www.w3.org/2000/svg" width="44" height="44" viewBox="0 0 44 44" fill="none">
        <g clip-path="url(#clip0_1_241)">
            <path d="M22 0C9.845 0 0 9.845 0 22C0 34.155 9.845 44 22 44C34.155 44 44 34.155 44 22C44 9.845 34.155 0 22 0Z" fill="#A076AB"/>
            <path d="M26.62 0.494987L25.1717 4.34499C24.4933 5.13332 21.1383 9.34999 21.1383 9.34999L16.83 20.075L22.7883 22.7333L27.7383 23.8883L30.4333 24.2367C30.4333 24.2367 32.8533 19.36 33.8433 16.225C34.815 13.145 34.9433 11.3667 35.2733 8.39665L36.6117 5.55499C33.825 3.07999 30.3967 1.28332 26.62 0.476654V0.494987Z" fill="#DBB595"/>
            <path d="M19.47 18.04C18.645 17.6733 17.6367 18.1317 17.2333 19.0667L12.1917 30.7633C11.825 31.6067 12.1367 32.56 12.8883 32.89C13.64 33.22 14.5567 32.8167 14.9233 31.955L20.3683 20.4967C20.7717 19.5617 20.3133 18.4067 19.4883 18.0583L19.47 18.04ZM23.0083 19.525C22.1467 19.1583 21.0467 19.5067 20.6433 20.4417L14.9783 34.5033C14.63 35.3467 14.9783 36.3183 15.7667 36.6483C16.555 36.9783 17.49 36.5567 17.8383 35.7133L24.0167 21.945C24.4017 21.01 23.87 19.91 23.0083 19.5433V19.525ZM26.51 21.065C25.6667 20.7167 24.585 21.1383 24.1817 22.0917L19.5617 33.7333C19.1767 34.6683 19.5617 35.7133 20.3867 36.0617C21.23 36.41 22.22 35.915 22.605 34.98L27.5367 23.485C27.9217 22.55 27.335 21.4317 26.4917 21.0833L26.51 21.065ZM30.1033 22.165C29.2967 21.8533 28.1967 22.2933 27.8117 23.2283L25.52 30.03C25.2083 30.855 25.52 31.735 26.18 32.01C26.8767 32.285 27.6833 31.8267 28.0133 31.02L30.36 24.3833C30.7267 23.43 30.8917 22.4767 30.1033 22.165ZM21.9633 8.79999C21.9633 8.79999 18.755 10.7983 17.105 11.7517C16.28 12.2467 15.2167 14.0983 13.9517 15.7483C12.7233 17.3433 11.1833 18.4617 11.3483 19.085C11.7883 20.8267 14.245 19.6533 14.5383 19.5067C16.9217 18.1683 19.1583 15.29 19.1583 15.29L23.1733 14.19L21.9817 8.81832L21.9633 8.79999Z" fill="#DBB595"/>
            <path d="M11.2383 19.36C12.925 18.9933 13.145 16.6833 13.145 16.6833C10.5417 18.865 11.2383 19.36 11.2383 19.36Z" fill="#EFE4DC"/>
            <path d="M26.9683 29.8833C26.455 29.7 25.9783 29.7367 25.7583 30.3783C25.7583 30.3967 25.7033 30.5983 25.7033 30.635C25.52 31.2767 25.8133 31.7167 26.29 31.9C26.7667 32.065 27.2433 31.9367 27.5183 31.35C27.5183 31.3133 27.5917 31.0933 27.61 31.0567C27.83 30.415 27.4817 30.085 26.9683 29.9017V29.8833Z" fill="#E8C7AF"/>
            <path d="M26.95 29.9383C26.455 29.755 25.9967 29.7917 25.7767 30.3967C25.7767 30.415 25.6483 30.855 25.63 30.8917C25.4467 31.4967 25.4467 32.2117 26.0517 32.4317C26.6567 32.6517 27.0967 32.1567 27.3533 31.5883C27.3533 31.5517 27.5 31.0933 27.5183 31.0383C27.7567 30.4333 27.4267 30.1217 26.9317 29.9383H26.95Z" fill="#F7F3F0"/>
            <path d="M26.9683 29.9567C26.4733 29.7733 26.015 29.81 25.795 30.415C25.795 30.4333 25.7217 30.6167 25.7217 30.6533C25.5383 31.2583 25.8133 31.6983 26.2717 31.8633C26.73 32.0283 27.1883 31.9 27.4633 31.3317C27.4633 31.295 27.555 31.0933 27.5733 31.0567C27.7933 30.4517 27.4633 30.1217 26.9867 29.9567H26.9683Z" fill="#EFE4DC"/>
            <path d="M21.45 33.4583C20.845 33.22 20.2583 33.2567 19.965 34.0267C19.965 34.0633 19.8917 34.3017 19.8733 34.32C19.6167 35.09 19.965 35.64 20.5517 35.8783C21.12 36.0983 21.7067 35.9517 22.055 35.2367C22.0733 35.1817 22.1467 34.925 22.1833 34.87C22.4767 34.1 22.0733 33.6783 21.45 33.4583Z" fill="#E8C7AF"/>
            <path d="M21.4133 33.55C20.8267 33.3117 20.2767 33.33 19.9833 34.0817C19.9833 34.1183 19.8 34.6317 19.7817 34.6683C19.525 35.4017 19.5067 36.2817 20.2583 36.575C20.9917 36.8683 21.5417 36.2633 21.89 35.585C21.9083 35.53 22.0917 34.9983 22.1283 34.9433C22.4033 34.21 22.0183 33.8067 21.4317 33.5683L21.4133 33.55Z" fill="#F7F3F0"/>
            <path d="M21.45 33.5683C20.8633 33.33 20.3133 33.3484 20.02 34.1C20.02 34.1367 19.9283 34.3383 19.91 34.375C19.6533 35.1083 19.9833 35.6583 20.5333 35.8783C21.0833 36.0983 21.6517 35.97 22 35.2917C22.0183 35.2367 22.1283 35.0167 22.1467 34.9617C22.4217 34.2283 22.0367 33.825 21.45 33.5867V33.5683Z" fill="#EFE4DC"/>
            <path d="M16.885 34.045C16.2983 33.77 15.7117 33.77 15.3633 34.5033C15.3633 34.54 15.2717 34.7783 15.2533 34.7967C14.96 35.5483 15.2533 36.135 15.8217 36.3917C16.3717 36.6483 16.9767 36.5383 17.38 35.8417C17.4167 35.7867 17.5083 35.5483 17.5267 35.4933C17.875 34.76 17.49 34.32 16.9033 34.045H16.885Z" fill="#E8C7AF"/>
            <path d="M16.8483 34.1367C16.28 33.8617 15.73 33.8433 15.3817 34.5583C15.3817 34.595 15.1617 35.1083 15.1433 35.1267C14.85 35.8417 14.7767 36.7217 15.4733 37.0517C16.1883 37.3817 16.775 36.8317 17.16 36.1717C17.1783 36.1167 17.4167 35.585 17.435 35.5483C17.7833 34.8333 17.435 34.4117 16.8483 34.1367Z" fill="#F7F3F0"/>
            <path d="M16.8667 34.155C16.2983 33.88 15.7483 33.8617 15.4 34.5767C15.4 34.6133 15.29 34.815 15.2717 34.8517C14.9783 35.5667 15.2717 36.135 15.8033 36.3917C16.335 36.6483 16.9033 36.5567 17.3067 35.8967C17.325 35.8417 17.4533 35.6217 17.4717 35.585C17.8017 34.87 17.4717 34.4483 16.885 34.1733L16.8667 34.155Z" fill="#EFE4DC"/>
            <path d="M13.9883 30.3967C13.4017 30.1217 12.815 30.1217 12.4667 30.855C12.4667 30.8917 12.375 31.13 12.3567 31.1483C12.0633 31.9 12.3567 32.4867 12.925 32.7433C13.475 33 14.08 32.89 14.4833 32.1933C14.52 32.1383 14.6117 31.9 14.63 31.845C14.9783 31.0933 14.5933 30.6717 14.0067 30.3967H13.9883Z" fill="#E8C7AF"/>
            <path d="M13.9517 30.47C13.3833 30.195 12.8333 30.1767 12.485 30.8917C12.485 30.9283 12.265 31.4417 12.2467 31.46C11.9533 32.175 11.88 33.055 12.5767 33.385C13.2917 33.715 13.8783 33.165 14.2633 32.505C14.2817 32.45 14.52 31.9183 14.5383 31.8817C14.8867 31.1667 14.5383 30.7267 13.9517 30.47Z" fill="#F7F3F0"/>
            <path d="M13.9883 30.4883C13.42 30.2133 12.87 30.195 12.5217 30.91C12.5217 30.9467 12.4117 31.1483 12.3933 31.185C12.1 31.9 12.3933 32.4683 12.925 32.725C13.4567 32.9817 14.025 32.89 14.4283 32.23C14.4467 32.175 14.575 31.955 14.5933 31.9183C14.9233 31.2033 14.575 30.7817 14.0067 30.5067L13.9883 30.4883Z" fill="#EFE4DC"/>
            <path d="M20.1117 13.1633C20.1117 13.1633 19.2867 14.3733 18.8467 15.1433C18.425 15.895 17.5083 18.315 17.5083 18.315C17.5083 18.315 18.4983 16.17 19.0667 15.2717C19.6167 14.3733 20.295 13.3833 20.295 13.3833L20.1117 13.1633Z" fill="#CEA98D"/>
        </g>
        <defs>
            <clipPath id="clip0_1_241">
            <rect width="44" height="38" fill="white"/>
            </clipPath>
        </defs>
    </symbol> 
    <symbol  id="icon-nigth" width="38" height="44" viewBox="0 0 44 44" fill="none" xmlns="http://www.w3.org/2000/svg">
        <circle cx="22" cy="22" r="22" fill="white"/>
        <g clip-path="url(#clip0_1_228)">
        <path d="M17.0543 28.0365C23.1189 28.0365 28.0346 23.12 28.0346 17.0555C28.0346 14.3683 27.0663 11.91 25.4641 10.0012C30.4144 11.5903 33.9992 16.2271 33.9992 21.7053C33.9992 28.4961 28.4949 34.0004 21.7042 34.0004C16.2259 34.0004 11.5891 30.4156 10 25.4653C11.9088 27.0683 14.3678 28.0365 17.0543 28.0365Z" fill="#9D5093"/>
        <path d="M29.3031 12.0544C30.9476 14.1438 31.9358 16.7742 31.9358 19.6405C31.9358 26.4312 26.4314 31.9356 19.6407 31.9356C16.7744 31.9356 14.1441 30.9474 12.0547 29.3029C14.3047 32.1592 17.7865 33.9996 21.7048 33.9996C28.4955 33.9996 33.9998 28.4953 33.9998 21.7045C33.9998 17.7863 32.1594 14.3052 29.3031 12.0544Z" fill="#822976"/>
        <path d="M16.1536 14.8L17.42 17.3674L20.2524 17.7785L18.203 19.7765L18.6864 22.5974L16.1536 21.2657L13.62 22.5974L14.1034 19.7765L12.0539 17.7785L14.8864 17.3674L16.1536 14.8Z" fill="#822976"/>
        <path d="M23.2968 13.9786L23.9531 15.3096L25.4215 15.5224L24.3588 16.5583L24.6101 18.0198L23.2968 17.3298L21.9835 18.0198L22.2348 16.5583L21.1721 15.5224L22.6406 15.3096L23.2968 13.9786Z" fill="#822976"/>
        </g>
        <defs>
            <clipPath id="clip0_1_228">
                <rect width="24" height="24" fill="white" transform="translate(10 10)"/>
            </clipPath>
        </defs>
    </symbol>
    <symbol id="icon-day" xmlns="http://www.w3.org/2000/svg" width="38" height="44" viewBox="0 0 44 44" fill="none">
        <circle cx="22" cy="22" r="22" fill="white"/>
    </symbol>
    <symbol id="icon-sunny" xmlns="http://www.w3.org/2000/svg" width="50" height="30" viewBox="0 -9 35 25" fill="none">
        <path d="M13.9393 1.71865L15.4155 0.358887L15.9222 2.30099C16.1037 2.99618 16.5399 3.59772 17.1444 3.98614C17.7488 4.37456 18.4772 4.52147 19.185 4.39768L21.1619 4.05206L20.5384 5.96042C20.3153 6.64331 20.3571 7.38513 20.6555 8.03861C20.954 8.69209 21.4873 9.20946 22.1495 9.48801L24 10.266L22.444 11.5336C21.887 11.9874 21.521 12.6342 21.4187 13.3453C21.3165 14.0565 21.4855 14.7802 21.8921 15.3725L23.0279 17.0272L21.0332 17.2522C20.3192 17.3328 19.6617 17.679 19.1912 18.2221C18.7207 18.7651 18.4716 19.4652 18.4933 20.1833L18.554 22.1894L16.7546 21.3006C16.1105 20.9827 15.3704 20.9187 14.6813 21.1211C13.9921 21.3235 13.4042 21.7775 13.0342 22.3932L12.0001 24.1138L10.9667 22.3932C10.5967 21.7775 10.0088 21.3235 9.31964 21.1211C8.63048 20.9187 7.89041 20.9827 7.2463 21.3006L5.44608 22.1894L5.50699 20.1833C5.52875 19.4651 5.27962 18.765 4.80906 18.222C4.3385 17.679 3.68093 17.3328 2.96694 17.2522L0.972598 17.0268L2.10836 15.3721C2.51497 14.7798 2.68393 14.0561 2.58169 13.345C2.47945 12.6338 2.11349 11.9871 1.55648 11.5332L0.000488281 10.2656L1.85102 9.48762C2.51324 9.20907 3.0465 8.69171 3.34496 8.03822C3.64342 7.38474 3.68525 6.64293 3.46215 5.96004L2.83856 4.05167L4.81555 4.3973C5.52317 4.52099 6.25144 4.37409 6.85579 3.98575C7.46013 3.59741 7.89636 2.99603 8.07789 2.30099L8.58466 0.358887L10.0609 1.71865C10.5893 2.20542 11.2816 2.47564 12.0001 2.47564C12.7186 2.47564 13.4108 2.20542 13.9393 1.71865Z" fill="#FFE671"/>
        <path d="M18.6455 13.1233C19.2408 9.45125 16.7466 5.99194 13.0746 5.39668C9.40258 4.80142 5.94328 7.29562 5.34802 10.9676C4.75276 14.6396 7.24696 18.0989 10.919 18.6942C14.591 19.2895 18.0503 16.7953 18.6455 13.1233Z" fill="#FFAE4D"/>
        <path d="M16.8614 12.3746C16.7744 12.3746 16.6911 12.3401 16.6296 12.2787C16.5682 12.2172 16.5337 12.1339 16.5337 12.0469C16.5324 10.8449 16.0544 9.6925 15.2044 8.84254C14.3545 7.99259 13.2021 7.51455 12 7.51332C11.9129 7.51332 11.8294 7.47872 11.7678 7.41712C11.7062 7.35552 11.6716 7.27197 11.6716 7.18485C11.6716 7.09774 11.7062 7.01419 11.7678 6.95259C11.8294 6.89099 11.9129 6.85638 12 6.85638C13.376 6.85797 14.6951 7.40532 15.668 8.37835C16.6409 9.35137 17.1881 10.6706 17.1894 12.0466C17.1895 12.0897 17.181 12.1323 17.1646 12.1722C17.1481 12.212 17.1239 12.2482 17.0935 12.2787C17.063 12.3091 17.0268 12.3333 16.987 12.3498C16.9471 12.3662 16.9045 12.3747 16.8614 12.3746Z" fill="#FF9B36"/>
    </symbol>
    <symbol id="icon-search" xmlns="http://www.w3.org/2000/svg" width="21" height="24" viewBox="0 0 21 24" fill="none">
        <circle cx="8.5" cy="8.5" r="8.5" fill="#EFC6B4"/>
        <circle cx="8.25983" cy="6.25983" r="4.25983" fill="#E280A8"/>
        <path fill-rule="evenodd" clip-rule="evenodd" d="M20.3 10.7243C20.3 15.0321 16.8078 18.5243 12.5 18.5243C8.19218 18.5243 4.7 15.0321 4.7 10.7243C4.7 6.41648 8.19218 2.9243 12.5 2.9243C16.8078 2.9243 20.3 6.41648 20.3 10.7243ZM16.7941 18.0615C15.5339 18.8006 14.0664 19.2243 12.5 19.2243C7.80558 19.2243 4 15.4187 4 10.7243C4 6.02988 7.80558 2.2243 12.5 2.2243C17.1944 2.2243 21 6.02988 21 10.7243C21 13.6014 19.5705 16.1447 17.3831 17.6826L20.3 22.5442C20.3995 22.7099 20.3457 22.9249 20.18 23.0244C20.0142 23.1238 19.7992 23.0701 19.6998 22.9043L16.7941 18.0615Z" fill="#822976"/>
    </symbol>
     <symbol id="icon-close" viewBox="0 0 17 18"  xmlns="http://www.w3.org/2000/svg">
        <path stroke="#696969" stroke-linecap="round" d="M4.11 2.697L2.698 4.11 6.586 8l-3.89 3.89 1.415 1.413L8 9.414l3.89 3.89 1.413-1.415L9.414 8l3.89-3.89-1.415-1.413L8 6.586l-3.89-3.89z"></path>
    </symbol>
</svg>